<?xml version="1.0" encoding="UTF-8"?>
<svg id="Layer_1" xmlns="http://www.w3.org/2000/svg" version="1.1" viewBox="0 0 4096 2424">
  <!-- Generator: Adobe Illustrator 29.8.3, SVG Export Plug-In . SVG Version: 2.1.1 Build 3)  -->
  <defs>
    <style>
      .st0 {
        fill: #fcfcfc;
      }

      .st1 {
        fill: #fdfdfd;
      }
    </style>
  </defs>
  <path class="st1" d="M1694.7,948.2c3.3.8,6.5,1.6,9.8,2.4,21.1,5.2,40.9,13.1,59.6,24.3,2.1,1.2,4.2,2.4,6.3,3.5,22.1,11.9,41.8,27.2,60.6,43.6.5.5,1.1.9,1.6,1.4,1.6,1.4,3.1,2.8,4.7,4.2.9.8,1.8,1.6,2.7,2.4q1.9,2,1.9,4h2q1.5,1.5,3.2,3.6t1.9,2.2c.6.7,1.2,1.5,1.9,2.2,1.1,1.3,2.3,2.7,3.4,4,.8,1,1.7,2,2.6,3-1.3,3.5-2.8,6.3-5,9.3-3.2,4.5-6.1,9.1-9,13.8-2.7,4.3-5.3,8.5-8.5,12.4-4.6,5.7-8.3,12-12.1,18.2-6.4,10.4-13,20.7-19.8,30.9-6.2,9.2-12.4,18.5-17.6,28.4-4.3-1.5-6.2-4.8-8.7-8.4-9.3-13.4-19.9-26.5-32.4-37-2-1.7-4-3.5-5.9-5.3-10.4-9.3-21.9-17.4-34-24.3-.6-.3-1.1-.7-1.7-1-38.6-22.1-83.5-25.2-126-13.7-25.9,7.3-51.3,24.1-68.2,45.1-.7.8-1.4,1.7-2.1,2.5h-2c-.3.6-.6,1.2-.8,1.8-1.1,2.1-2.3,4-3.7,5.9-.5.7-1,1.4-1.5,2.1-.5.7-1,1.5-1.6,2.2-10.6,14.9-19.3,29.8-25.1,47.2q-.6,1.7-1.1,3.4c-.7,2.2-1.5,4.3-2.2,6.5-.6,1.8-1.2,3.6-1.9,5.3-4.4,11.8-3.3,25.1-3.3,37.6,0,2.9,0,5.9,0,8.8,0,15,1,28.1,6.5,42.2.9,2.3,1.6,4.7,2.3,7,3.5,10.7,7.9,20.2,13.9,29.8.6,1,1.2,2,1.8,3,4.3,6.7,9.3,12.5,14.7,18.3,1,1.1,1.9,2.1,2.9,3.2,28.1,30.9,57.8,47.4,99.8,50,24.3,1,49.2-1.4,71.3-12.2.8-.4,1.6-.8,2.4-1.2,2.6-1.3,5.1-2.5,7.6-3.8.9-.4,1.7-.9,2.6-1.3,5.6-2.9,10.7-6.2,15.9-9.8.6-.4,1.2-.8,1.8-1.3,2.5-1.8,4.9-3.7,7.1-5.9q1.7-1.7,3.7-1.7v-2q1.4-1.3,3.3-2.8c10.4-8.9,18-20.2,25.5-31.4,1.5-2.3,3.1-4.4,4.8-6.6,3.5-5,6.4-10.2,9.3-15.5,3.6-6.6,7.3-13.1,11.1-19.5.6-1,1.2-2,1.8-3.1,2.3-3.9,4.5-7.7,6.8-11.6,5.5-9.3,10.8-18.7,15.8-28.3,2.9-5.6,5.9-11.1,9-16.6.4-.8.8-1.5,1.3-2.3,1.7-3,3.4-6,5.1-9.1,3.2-5.7,6.1-11.6,9-17.4,3.7-7.5,7.6-14.9,11.6-22.3.5-.9,1-1.8,1.5-2.7,2.4-4.3,4.8-8.6,7.4-12.8,2.8-4.6,5-9.3,7.2-14.1,3.7-8,7.8-15.5,12.5-23,1.2-1.9,2.4-3.9,3.6-5.9,5.5-9,11.3-17.6,17.6-26,.7-1,1.5-2,2.2-3.1,4-5.4,8.2-10.7,12.5-15.9.4-.5.9-1.1,1.4-1.6,2.8-3.3,5.8-6.4,8.9-9.5,1.8-1.8,3.6-3.7,5.5-5.5,1.6-1.6,3.2-3.2,4.7-4.8,1.1-1.1,2.2-2.2,3.2-3.2,6-6.1,12-12,18.6-17.5,1-.8,1.9-1.6,2.9-2.4q1.2-1,2.5-2c.8-.7,1.7-1.4,2.5-2.1q2.1-1.5,4.1-1.5v-2c2-1.6,3.9-3,6-4.4.6-.4,1.3-.9,1.9-1.3,1.3-.9,2.7-1.9,4-2.8,2-1.4,4-2.8,6-4.2,20-14,41-26.8,63.1-37.2,1.1-.5,2.2-1.1,3.4-1.6,10.2-4.6,20.8-7.5,31.6-10.4.9-.2,1.7-.5,2.6-.7,4.8-1.3,9.6-2.6,14.4-3.8,1.7-.4,3.5-.9,5.2-1.4,39.6-10.3,83.3-6.5,122.5,3.2.9.2,1.9.5,2.8.7,15.8,3.9,30.8,8.9,45.5,16,.6.3,1.2.6,1.8.8,10.6,5,20.4,10.8,30.2,17.2q1.6,1,3.2,2.1c7.6,4.9,14.7,10.4,21.8,15.9q1.3,1,2.6,2c11.3,8.8,21.9,18.7,31.3,29.5,1.6,1.9,3.3,3.8,5,5.6,16.4,18.4,28.8,38.1,40.2,59.8q.8,1.4,1.5,2.9c10.1,19.6,17.7,40.6,22.5,62.1.2.9.5,1.7.7,2.7,2,7.4,3.1,14.6,3.9,22.2q.2,1.7.4,3.5c.3,3.2.7,6.5,1,9.7,0,.7.1,1.5.2,2.2.4,4.3.7,8.5.8,12.8,0,.9,0,1.9,0,2.8.5,18.9-.8,37.4-3.1,56.2-.1.9-.2,1.9-.3,2.9-4.2,34.1-17.1,70.4-35.5,99.3-1.1,1.7-2.1,3.5-3.2,5.2-8.3,14-18.3,26.4-29,38.6-1.3,1.5-2.6,3-3.9,4.4-.5.6-1.1,1.2-1.6,1.8-1,1.2-2,2.3-3,3.5-3.2,3.8-6.6,7.1-10.3,10.3-2.3,2-4.6,4-6.8,6.1-21.6,19.4-47.2,37-74.1,47.8-2.3.9-4.6,1.9-6.9,2.9-13.1,5.6-26.5,9.5-40.3,13-1,.2-1.9.5-2.9.7-57,14-118.3,10.3-172.1-13.7-.8-.4-1.6-.7-2.5-1.1-19.9-8.9-39.2-19.6-56.5-32.9-.8-.6-1.7-1.3-2.6-2-2.5-2-5-4-7.4-6-1-.8-2-1.6-3-2.4-7.7-6.3-14.8-13.1-21.8-20.1-.9-.9-1.7-1.7-2.6-2.6-5.9-6-11.3-12.2-16.5-18.8-.5-.6-1-1.2-1.5-1.8-15.7-19.7-32.2-43.2-37.5-68.2h-2q-.3,1.2-.7,2.5c-1.6,4.4-3.9,8.1-6.4,12-.5.8-1,1.6-1.5,2.4-1.5,2.4-3,4.7-4.4,7.1-.8,1.3-1.6,2.5-2.3,3.8-15.8,25.2-35.1,47.9-55.7,69.2-.5.6-1.1,1.1-1.6,1.7-6.4,6.7-13.1,12.6-20.4,18.3-.7.5-1.4,1.1-2.1,1.7q-21.4,17-33.4,23c-2.2,1.1-4.1,2.3-6.2,3.7-50.5,31.8-124.5,40.3-182.3,27.4-8.4-2-16.8-4.3-25.1-6.7-.9-.3-1.9-.5-2.8-.8-24.1-7.1-47.8-19.6-68.2-34.2-.6-.4-1.2-.9-1.8-1.3-3.5-2.5-6.8-5.1-10.2-7.7-.9-.7-1.8-1.5-2.8-2.2-5.7-4.6-11.2-9.5-16.7-14.5-2.2-2-4.4-3.9-6.6-5.8-8.4-7.3-15.5-15.3-22.3-24.1-2.3-3-4.7-5.9-7.2-8.7-5.3-6.5-9.7-13.5-14.2-20.6-1.2-1.8-2.4-3.6-3.6-5.4-10.9-16.2-19.2-34.2-25.7-52.6q-.4-1-.8-2c-14.1-38.4-21.1-81.9-15.6-122.7.3-2.4.6-4.7.9-7.1,4.8-37.8,14.9-74.8,33.3-108.2.9-1.7,1.8-3.4,2.7-5.1,6.4-12.3,14.4-23.3,23.4-33.9,1.5-1.8,2.9-3.6,4.4-5.4,3.9-4.7,7.9-9.2,12.1-13.7q2.6-2.7,4.5-5.9h2c.2-.6.5-1.2.7-1.8,1.7-2.8,3.7-4.2,6.3-6.2.7-.7,1.4-1.4,2.2-2.2,13.7-13.7,29.2-25,45.8-34.8.8-.5,1.7-1,2.5-1.5,20.7-12.3,42.1-22.4,65.5-28.5,1.2-.3,2.4-.6,3.6-1,48.3-13.1,97.5-14.2,146.1-1.9ZM2028,1114c-.8,1-1.6,2-2.4,3q-2.6,3-5.4,5.3c-3.4,2.8-5.7,5.9-8.2,9.5-.4.6-.8,1.1-1.2,1.7-1.3,1.8-2.5,3.7-3.8,5.5-.5.7-1,1.4-1.5,2.1-9,13.2-15.7,27.1-20.6,42.3-.4,1.1-.7,2.3-1.1,3.4-4.2,13.5-5.1,26.6-5,40.7,0,2.5,0,5,0,7.5,0,12.9.1,25.4,4.1,37.8q.5,1.5.9,2.9c13.7,42.4,41.8,80.6,82,101.2,11.7,5.9,23.3,11.2,36.2,13.9.9.2,1.8.4,2.7.6,12.7,2.6,25.3,3.8,38.3,3.9,1.2,0,2.5,0,3.8,0,6.4,0,11.9-.6,18-2.7,3.4-1.1,6.8-1.5,10.4-2,8.8-1.4,16.7-4.2,24.9-7.7.7-.3,1.5-.6,2.3-1,19-8.1,35.8-17.6,50.7-32,.6-.6,1.2-1.1,1.8-1.7,32.2-30.6,48.7-70.8,50.2-115.3,0-1.1,0-2.2.1-3.4.2-9.6-1.1-18.3-3.3-27.6-.3-1.4-.7-2.8-1-4.3-3.6-15.6-8.2-29.7-15.8-43.8-.4-.7-.7-1.4-1.1-2-6.3-12-13.5-23.1-23.4-32.5q-1.5-1.5-3.7-4.3c-22.5-27.5-65.3-42.8-99.4-46.7-48.4-4.6-95.3,10.3-129.3,45.6Z"/>
  <path class="st1" d="M1157.3,890.6c3.7,1.9,6.7,1.2,10.7.4,1.2-.3,2.3-.5,3.5-.8,7.8-2,15.6-4.1,23.4-6.2q1.3-.4,2.6-.7c5.1-1.4,9.7-3.2,14.4-5.5q2-.8,6-.8c-.1.7-.2,1.3-.4,2-.8,4.7-1.6,9.3-2,14.1-1.4,16.5-6.1,31.9-12.4,47.2-2.6,6.2-3.4,10.7-2.9,17.5.6,8,.8,15.9.9,23.9,0,1.5,0,3.1,0,4.6.3,14.1-1.3,27.6-8.2,40.2q-.5,1-1,2c-2.8,5.3-6.1,10-10.1,14.6-.7.8-1.4,1.7-2.1,2.5q-5.5,6.3-7.9,7.5c-.3,1-.7,2-1,3,.6.3,1.2.6,1.8.8,2.1,1.1,4,2.3,6,3.7,5.7,3.8,11.4,7.4,17.2,11,2.4,1.5,4.7,3,7.1,4.5,24.3,15.8,52.1,24.8,79.6,33.3,14.3,4.5,31.9,10.4,40.3,23.7,2.3,4.7,3,9.8,2,15-4.7,10.2-12.8,15.2-22.5,20-7.5,2.2-15.1-.5-22.4-2.4-21-5.1-40.1-7.3-61.7-3.9-1,.2-2,.3-3,.5-12.2,2.2-24.2,7-32.4,16.8-6.9,9.9-5.1,23.3-5.3,34.9-.4,20.2-1.8,40.3-3.5,60.5-.6,6.7-1.1,13.5-1.7,20.2-.2,2.3-.4,4.6-.6,6.9-.1,1.4-.2,2.8-.4,4.2-.1,1.2-.2,2.4-.3,3.7q-.5,8.7,1.5,17,.5,1.4,1.1,2.8c1.4,3.3,2.8,6.5,4.3,9.8,4.8,10.8,6.4,26.8,2.5,38.2-.5,1.3-1.1,2.5-1.6,3.8-.4,1.2-.8,2.4-1.2,3.6-.3.8-.5,1.6-.8,2.4,2.3-1.3,4.5-2.6,6.5-4.3,12.3-10.2,29.1-16.5,45.1-16.1,9.1.9,16.3,4.5,22.4,11.3,2.8,4.4,4.7,8.8,3.6,14.1-1.7,5.5-4.3,10.2-7.6,14.9-.7,1-1.3,2-2,3h-2c-.3,1-.7,2-1,3q-1.5,1.5-3.5,3.2t-2.2,1.9c-.8.6-1.5,1.3-2.3,2-1.5,1.3-3,2.7-4.5,4-2.7,2.4-5.4,4.8-8.2,7.2-2.5,2.2-5,4.4-7.4,6.8-7.4,7-15.1,13.6-23.2,19.8-1.6,1.2-3.1,2.4-4.7,3.6-16,12.2-35.8,26.8-56.9,25-10.9-1.9-19.3-10.7-25.4-19.3-.9-1.3-1.8-2.7-2.6-4.1-5.3.7-10.3,1.7-15.4,3.1q-1.1.3-2.2.6c-1.8.5-3.6.9-5.3,1.4q.5.9,1,1.7c4.7,8.3,8.4,16.9,11.9,25.7.7,1.7,1.4,3.5,2.1,5.2,12.6,30.6,13.8,59,6.3,91.1-3.8,16.5-1.2,29.9,3.1,46.1.3,1.2.6,2.4.9,3.6q1.8,6.8,3.8,13.6c1.6,6.1,2.2,12.6-.9,18.2-2.7,2.2-4.8,3.8-8.3,4-15.4-1.7-26.6-13.4-36.9-24.1q-1.3-1.3-2.6-2.6c-10-10.1-15.5-21-15.6-35.3q0-1.1,0-2.3c0-2.5,0-5,0-7.5,0-.9,0-1.7,0-2.6,0-10.6.3-20.9,1.8-31.4,3.7-27.2,1.8-51.6-10.5-76.3-.3-.7-.7-1.4-1-2.1-7.7-15.8-17.9-32.4-30.7-44.6q-1.3-1.3-1.3-3.3c-3.3,2.7-4.9,6.3-6.7,10.1-.4.7-.7,1.4-1.1,2.1-1.8,3.7-3.5,7.4-5.1,11.2-8.9,21.4-23.5,44.3-45.6,53.7-8,2.8-15.8,2.2-23.6-1.1-8.3-4.4-12.6-11.8-16.2-20.2-3.1-13.9,5.5-27.4,11.9-39.2q13.6-24.1,14.2-50.6c-.6-1.9-1.2-3.8-1.8-5.7-.3-1-.7-2-1-3.1-1-3.2-2.1-6.5-3.1-9.7q-11.3-34.7-11.1-50.2c0-.8,0-1.7,0-2.5,1-35.5,17.1-72.8,35.4-102.8.4-.7.9-1.5,1.4-2.2,3.8-6.2,7.5-12.4,11.4-18.5,8.2-13.1,17.6-29.4,14.2-45.2-.2-1.3-.5-2.6-.7-3.9q-1-3.3-4.2-4.4-1.5-.3-3.1-.7-.9-.5-1.8-1c-9.6-4.2-25.1-.3-35.2,1.2-.8.1-1.6.2-2.4.3-13,1.8-25.6,4.4-38.2,7.9-12.1,3.3-20,2.3-31.4-3.4-5.5-3.4-9.9-8.8-12-15-.8-7.5,1.6-13.5,5.8-19.6,11.6-14.1,28.6-18.2,45.4-22.8,20.1-5.5,37.8-13.5,55.5-24.6.8-.5,1.6-1,2.4-1.5,4.4-2.8,8.3-5.7,12.2-9.1,2.6-2.2,5.5-4,8.4-5.8,1.2-.8,2.5-1.6,3.7-2.3.6-.4,1.2-.8,1.8-1.1,1.5-1,3.1-2,4.6-3,6.8-4.5,13.9-8.3,21.1-12.1-1.4-3.5-3.2-5.2-6.3-7.4-3.5-2.7-6.7-5.3-9.7-8.6-.5-.5-1-1.1-1.5-1.6-9.9-10.7-16-22.6-20.5-36.4-.4-1-.7-2-1.1-3.1-1.6-5.8-1.7-11.8-2.2-17.8-1.1-11.3-2.9-21.5-6.7-32.1-7-19.9-12-41.8-12-63,4.1.7,7.5,2.7,11.1,4.6,6.1,3.1,12.2,6,18.5,8.8.7.3,1.5.7,2.3,1q8.3,4,17.1,4.6c2.1-1.7,4-3.4,5.9-5.4,12.5-12,25.9-18.9,42.1-24.6,1-.4,1.9-.7,2.9-1.1,35.9-11.6,83-1.4,111.4,22.7Z"/>
  <path class="st0" d="M2452.9,942.9c.9,0,1.7,0,2.6,0,.9,0,1.8,0,2.7,0,3,0,6.1,0,9.1,0,2.2,0,4.3,0,6.5,0,5.9,0,11.8,0,17.8,0,3.7,0,7.4,0,11.1,0,12.3,0,24.5,0,36.8,0,.7,0,1.3,0,2,0,.7,0,1.3,0,2,0,11.4,0,22.7,0,34.1,0,10.3,0,20.7,0,31,0,6.2,0,12.3,0,18.5,0,5.8,0,11.6,0,17.5,0,2.1,0,4.2,0,6.4,0,32.7,0,71.4,2,101.1,17.3.7.3,1.3.7,2,1,42.3,22,76.5,57.3,92,102.8,1.9,6,3.5,12,5,18.1.3,1.2.6,2.4,1,3.6,11.3,44.3,3,95.1-19.8,134.6-1.7,2.7-3.4,5.3-5.2,7.8-.5.8-1,1.6-1.5,2.4-5.5,8.4-12.5,15.5-19.5,22.6-.9.9-1.7,1.8-2.6,2.7-14.4,14.6-32.9,31-52.4,38.3.3.7.6,1.4.9,2.1.7,1.9,1.5,3.7,2.2,5.6,2.9,7.2,6.3,13.7,10.4,20.3,5.3,8.9,10.2,18,14.8,27.3.3.6.6,1.2.9,1.8,1.4,2.9,2.9,5.8,4.3,8.7,5.1,10.3,10.5,20.3,16.1,30.3,5.7,10.1,10.9,20.4,16.1,30.6,4.2,8.3,8.7,16.5,13.3,24.7,2.4,4.3,4.7,8.5,7,12.9.4.8.8,1.6,1.2,2.4,3.3,6.4,6.4,12.8,9.4,19.4,2.9,6.1,6.1,12,9.5,17.9q3.5,5.9,3.8,9.1-1,1-3.1,1.1c-.9,0-1.9,0-2.9,0q-1.6,0-3.3,0c-1.2,0-2.4,0-3.6,0-1.2,0-2.5,0-3.8,0-3.4,0-6.9,0-10.3,0-3.6,0-7.2,0-10.8,0-6.8,0-13.6,0-20.4,0-7.7,0-15.5,0-23.2,0-15.9,0-31.8,0-47.7,0-1.6-3-3.2-6-4.7-9-.4-.8-.9-1.7-1.3-2.5-3.8-7.1-7.4-14.3-10.9-21.5-1.6-3.3-3.3-6.6-5-10-2-3.9-3.9-7.8-5.9-11.8-7.5-15-15.3-29.9-23.1-44.7-1.2-2.4-2.5-4.7-3.7-7.1-.8-1.6-1.7-3.2-2.5-4.8-5.4-10.1-10.6-20.3-15.7-30.6-.4-.9-.9-1.8-1.3-2.7-2.2-4.5-4.4-8.9-6.6-13.4q-5.5-11.2-11.9-21.8c-1.4-2.6-2.3-5.3-3.2-8.1-.7,0-1.5,0-2.2,0-6.9,0-13.8,0-20.7,0-3.5,0-7.1,0-10.6,0-4.1,0-8.2,0-12.2,0-1.3,0-2.5,0-3.8,0-7.6,0-15-.4-22.5-1.1q0,1.1,0,2.2c.6,38.5,1.1,76.9,1.1,115.4,0,2.8,0,5.6,0,8.4,0,20.7-.1,41.3-1.1,62-2.4,1.2-3.9,1.1-6.6,1.1-1,0-2,0-3,0-1.1,0-2.2,0-3.3,0q-1.7,0-3.4,0c-3.8,0-7.5,0-11.3,0-2.6,0-5.2,0-7.8,0-6.1,0-12.3,0-18.4,0-7,0-14,0-21,0-14.4,0-28.8,0-43.2,0-.1-20.5-.3-40.9-.4-61.4,0-9.5-.1-19-.2-28.6-.6-92.9-.5-185.7,0-313.4,0-.8,0-1.5,0-2.3,0-.8,0-1.5,0-2.3,0-.8,0-1.5,0-2.3,0-1.6,0-3.1,0-4.7,0-12.8,0-25.6.1-38.4,0-13.4,0-26.7.1-40.1,0-7.4,0-14.8,0-22.2,0-6.9,0-13.7,0-20.6,0-2.5,0-5,0-7.5,0-3.4,0-6.8,0-10.2,0-1,0-2,0-3,0-.9,0-1.8,0-2.7,0-.8,0-1.6,0-2.4.3-4.1,3.7-2.9,7-2.9ZM2564,1064v141q29.5,0,59.7.2,9.3,0,18.8,0,5.6,0,11.1,0c2.5,0,5,0,7.4,0,3.8,0,7.5,0,11.3,0q1.7,0,3.4,0,7.1,0,13.2-3.4c1.6-.6,3.2-1.1,4.8-1.6,18.4-6.6,31.9-17.7,40.4-35.5,1.8-4.4,2.9-8.9,4-13.5q.8-3.4,1.9-6.5c4.6-14.3-1.3-34.6-7.7-47.6-7.4-14.1-19.5-25-34.6-30.2-15.1-4.4-31.5-3.3-47.1-3.3-2.2,0-4.5,0-6.7,0-8.2,0-16.3,0-24.5,0-18.3,0-36.6,0-55.4.1Z"/>
  <path class="st1" d="M2890,945q190.6.5,385,1c1.2,2.4,1.1,3.9,1.1,6.6,0,1,0,1.9,0,2.9,0,1.1,0,2.1,0,3.2,0,1.1,0,2.2,0,3.4,0,3.7,0,7.4,0,11.2,0,2.6,0,5.1,0,7.7,0,5.4,0,10.8-.1,16.2,0,6.2-.1,12.5-.2,18.7,0,6-.1,12-.2,18,0,2.6,0,5.1,0,7.7,0,3.6,0,7.1-.1,10.7,0,1.1,0,2.1,0,3.2q0,1.4,0,2.9c0,.8,0,1.7,0,2.6q-.1,1.9-1.1,2.9c-1.4.1-2.8.1-4.2.1q-1.4,0-2.8,0c-1,0-2,0-3.1,0q-1.6,0-3.3,0c-3.6,0-7.3,0-10.9,0-2.6,0-5.2,0-7.8,0-5.6,0-11.2,0-16.8,0-8.1,0-16.2,0-24.4,0-13.2,0-26.3,0-39.5.1-12.8,0-25.6,0-38.4.1-.8,0-1.6,0-2.4,0-4,0-7.9,0-11.9,0-32.8.1-65.7.2-98.5.3-.3,34.6-.7,69.3-1,105h246v112c-2,2-4.9,1.1-7.5,1.1-1,0-1.9,0-2.9,0-1,0-2,0-3,0-3.4,0-6.8,0-10.1,0-2.4,0-4.8,0-7.2,0-5.2,0-10.4,0-15.6,0-7.5,0-15.1,0-22.6,0-12.2,0-24.4,0-36.7,0-11.9,0-23.8,0-35.6,0q-1.1,0-2.2,0c-3.7,0-7.3,0-11,0-30.5,0-60.9,0-91.4,0v105h267v119c-1.8,1.8-4.7,1.1-7.1,1.1-.6,0-1.3,0-2,0-2.2,0-4.4,0-6.6,0-1.6,0-3.2,0-4.7,0-4.4,0-8.7,0-13.1,0-4.7,0-9.4,0-14.1,0-9.2,0-18.4,0-27.6,0-7.5,0-15,0-22.4,0-1.1,0-2.1,0-3.2,0-2.2,0-4.3,0-6.5,0-20.3,0-40.5.1-60.8.2-17.4,0-34.8,0-52.2.1-20.2,0-40.4.1-60.5.2h-6.5q-1.6,0-3.2,0c-7.5,0-14.9,0-22.4,0-9.1,0-18.2,0-27.3,0-4.6,0-9.3,0-13.9,0-4.2,0-8.5,0-12.7,0-1.5,0-3.1,0-4.6,0-2.1,0-4.2,0-6.3,0q-1.7,0-3.5,0t-4.7-1.1v-563Z"/>
</svg>